<svg width="722" height="512" viewBox="0 0 722 512" fill="none" xmlns="http://www.w3.org/2000/svg">
<g filter="url(#filter0_d)">
<path d="M16.5 12.5H705.5V489.5H16.5V12.5Z" stroke="white" stroke-width="5"/>
</g>
<line x1="13.9963" y1="45.5" x2="707.996" y2="44.4839" stroke="white" stroke-width="5"/>
<line x1="237.5" y1="10" x2="237.5" y2="47" stroke="white" stroke-width="5"/>
<line x1="132.5" y1="10" x2="132.5" y2="47" stroke="white" stroke-width="5"/>
<path d="M147.553 30.5757H145.569V35H143.079V22.9141H147.57C148.998 22.9141 150.099 23.2323 150.874 23.8687C151.648 24.505 152.036 25.4043 152.036 26.5664C152.036 27.391 151.856 28.0799 151.496 28.6333C151.142 29.1812 150.602 29.6183 149.877 29.9448L152.492 34.8838V35H149.819L147.553 30.5757ZM145.569 28.5586H147.578C148.203 28.5586 148.688 28.4009 149.031 28.0854C149.374 27.7645 149.545 27.3245 149.545 26.7656C149.545 26.1956 149.382 25.7474 149.056 25.4209C148.735 25.0944 148.239 24.9312 147.57 24.9312H145.569V28.5586ZM153.405 30.4263C153.405 29.5353 153.577 28.7412 153.92 28.0439C154.263 27.3467 154.756 26.8071 155.397 26.4253C156.045 26.0435 156.795 25.8525 157.647 25.8525C158.859 25.8525 159.847 26.2233 160.61 26.9648C161.38 27.7064 161.808 28.7135 161.897 29.9863L161.914 30.6006C161.914 31.9785 161.529 33.0853 160.76 33.9209C159.991 34.751 158.958 35.166 157.664 35.166C156.369 35.166 155.334 34.751 154.559 33.9209C153.79 33.0908 153.405 31.9619 153.405 30.5342V30.4263ZM155.804 30.6006C155.804 31.4528 155.965 32.1058 156.286 32.5596C156.607 33.0078 157.066 33.2319 157.664 33.2319C158.245 33.2319 158.698 33.0106 159.025 32.5679C159.351 32.1196 159.515 31.4058 159.515 30.4263C159.515 29.5907 159.351 28.9432 159.025 28.4839C158.698 28.0246 158.239 27.7949 157.647 27.7949C157.06 27.7949 156.607 28.0246 156.286 28.4839C155.965 28.9377 155.804 29.6432 155.804 30.6006ZM168.77 34.0869C168.178 34.8063 167.359 35.166 166.313 35.166C165.35 35.166 164.614 34.8893 164.105 34.3359C163.601 33.7826 163.344 32.9718 163.333 31.9038V26.0186H165.732V31.8208C165.732 32.756 166.158 33.2236 167.01 33.2236C167.824 33.2236 168.383 32.9414 168.687 32.377V26.0186H171.094V35H168.836L168.77 34.0869ZM175.776 23.8105V26.0186H177.312V27.7783H175.776V32.2607C175.776 32.5928 175.84 32.8307 175.967 32.9746C176.094 33.1185 176.338 33.1904 176.697 33.1904C176.963 33.1904 177.198 33.1711 177.403 33.1323V34.9502C176.932 35.0941 176.448 35.166 175.95 35.166C174.268 35.166 173.41 34.3166 173.377 32.6177V27.7783H172.065V26.0186H173.377V23.8105H175.776ZM182.782 35.166C181.465 35.166 180.391 34.762 179.561 33.9541C178.736 33.1462 178.324 32.0698 178.324 30.7251V30.4927C178.324 29.5907 178.499 28.7855 178.847 28.0771C179.196 27.3633 179.688 26.8154 180.325 26.4336C180.967 26.0462 181.697 25.8525 182.516 25.8525C183.745 25.8525 184.71 26.2399 185.413 27.0146C186.121 27.7894 186.476 28.8879 186.476 30.3101V31.2896H180.756C180.834 31.8761 181.066 32.3465 181.454 32.7007C181.847 33.0549 182.342 33.2319 182.939 33.2319C183.864 33.2319 184.586 32.8971 185.106 32.2275L186.285 33.5474C185.925 34.0565 185.438 34.4549 184.824 34.7427C184.209 35.0249 183.529 35.166 182.782 35.166ZM182.508 27.7949C182.032 27.7949 181.645 27.9554 181.346 28.2764C181.052 28.5973 180.864 29.0566 180.781 29.6543H184.118V29.4634C184.107 28.9321 183.963 28.5226 183.687 28.2349C183.41 27.9416 183.017 27.7949 182.508 27.7949ZM200.263 35H191.979V33.3564L195.889 29.1895C196.425 28.6029 196.821 28.091 197.076 27.6538C197.336 27.2166 197.466 26.8016 197.466 26.4087C197.466 25.8719 197.33 25.4513 197.059 25.147C196.788 24.8371 196.401 24.6821 195.897 24.6821C195.355 24.6821 194.926 24.8703 194.61 25.2466C194.3 25.6174 194.146 26.1071 194.146 26.7158H191.738C191.738 25.9798 191.913 25.3075 192.261 24.6987C192.615 24.09 193.113 23.6141 193.755 23.271C194.397 22.9224 195.125 22.748 195.938 22.748C197.184 22.748 198.149 23.0469 198.835 23.6445C199.527 24.2422 199.873 25.0861 199.873 26.1763C199.873 26.7739 199.718 27.3826 199.408 28.0024C199.098 28.6222 198.567 29.3444 197.814 30.1689L195.067 33.0659H200.263V35Z" fill="white"/>
<path d="M33.5532 30.5757H31.5693V35H29.0791V22.9141H33.5698C34.9976 22.9141 36.0988 23.2323 36.8735 23.8687C37.6483 24.505 38.0356 25.4043 38.0356 26.5664C38.0356 27.391 37.8558 28.0799 37.4961 28.6333C37.1419 29.1812 36.6024 29.6183 35.8774 29.9448L38.4922 34.8838V35H35.8193L33.5532 30.5757ZM31.5693 28.5586H33.5781C34.2035 28.5586 34.6877 28.4009 35.0308 28.0854C35.3739 27.7645 35.5454 27.3245 35.5454 26.7656C35.5454 26.1956 35.3822 25.7474 35.0557 25.4209C34.7347 25.0944 34.2394 24.9312 33.5698 24.9312H31.5693V28.5586ZM39.4053 30.4263C39.4053 29.5353 39.5768 28.7412 39.9199 28.0439C40.263 27.3467 40.7555 26.8071 41.3975 26.4253C42.0449 26.0435 42.7948 25.8525 43.647 25.8525C44.8589 25.8525 45.8467 26.2233 46.6104 26.9648C47.3796 27.7064 47.8084 28.7135 47.897 29.9863L47.9136 30.6006C47.9136 31.9785 47.529 33.0853 46.7598 33.9209C45.9906 34.751 44.9585 35.166 43.6636 35.166C42.3687 35.166 41.3338 34.751 40.5591 33.9209C39.7899 33.0908 39.4053 31.9619 39.4053 30.5342V30.4263ZM41.8042 30.6006C41.8042 31.4528 41.9647 32.1058 42.2856 32.5596C42.6066 33.0078 43.0659 33.2319 43.6636 33.2319C44.2446 33.2319 44.6984 33.0106 45.0249 32.5679C45.3514 32.1196 45.5146 31.4058 45.5146 30.4263C45.5146 29.5907 45.3514 28.9432 45.0249 28.4839C44.6984 28.0246 44.2391 27.7949 43.647 27.7949C43.0604 27.7949 42.6066 28.0246 42.2856 28.4839C41.9647 28.9377 41.8042 29.6432 41.8042 30.6006ZM54.77 34.0869C54.1779 34.8063 53.3589 35.166 52.313 35.166C51.3501 35.166 50.6141 34.8893 50.105 34.3359C49.6014 33.7826 49.3441 32.9718 49.333 31.9038V26.0186H51.7319V31.8208C51.7319 32.756 52.158 33.2236 53.0103 33.2236C53.8237 33.2236 54.3826 32.9414 54.687 32.377V26.0186H57.0942V35H54.8364L54.77 34.0869ZM61.7759 23.8105V26.0186H63.3115V27.7783H61.7759V32.2607C61.7759 32.5928 61.8395 32.8307 61.9668 32.9746C62.0941 33.1185 62.3376 33.1904 62.6973 33.1904C62.9629 33.1904 63.1981 33.1711 63.4028 33.1323V34.9502C62.9325 35.0941 62.4482 35.166 61.9502 35.166C60.2679 35.166 59.4102 34.3166 59.377 32.6177V27.7783H58.0654V26.0186H59.377V23.8105H61.7759ZM68.7817 35.166C67.4647 35.166 66.3911 34.762 65.561 33.9541C64.7365 33.1462 64.3242 32.0698 64.3242 30.7251V30.4927C64.3242 29.5907 64.4985 28.7855 64.8472 28.0771C65.1958 27.3633 65.6883 26.8154 66.3247 26.4336C66.9666 26.0462 67.6971 25.8525 68.5161 25.8525C69.7446 25.8525 70.7103 26.2399 71.4131 27.0146C72.1214 27.7894 72.4756 28.8879 72.4756 30.3101V31.2896H66.7563C66.8338 31.8761 67.0662 32.3465 67.4536 32.7007C67.8465 33.0549 68.3418 33.2319 68.9395 33.2319C69.8636 33.2319 70.5858 32.8971 71.106 32.2275L72.2847 33.5474C71.925 34.0565 71.438 34.4549 70.8237 34.7427C70.2095 35.0249 69.5288 35.166 68.7817 35.166ZM68.5078 27.7949C68.0319 27.7949 67.6445 27.9554 67.3457 28.2764C67.0524 28.5973 66.8643 29.0566 66.7812 29.6543H70.1182V29.4634C70.1071 28.9321 69.9632 28.5226 69.6865 28.2349C69.4098 27.9416 69.0169 27.7949 68.5078 27.7949ZM83.8062 35H81.4072V25.7529L78.5435 26.6411V24.6904L83.5488 22.8975H83.8062V35Z" fill="white"/>
<path d="M249.553 30.5757H247.569V35H245.079V22.9141H249.57C250.998 22.9141 252.099 23.2323 252.874 23.8687C253.648 24.505 254.036 25.4043 254.036 26.5664C254.036 27.391 253.856 28.0799 253.496 28.6333C253.142 29.1812 252.602 29.6183 251.877 29.9448L254.492 34.8838V35H251.819L249.553 30.5757ZM247.569 28.5586H249.578C250.203 28.5586 250.688 28.4009 251.031 28.0854C251.374 27.7645 251.545 27.3245 251.545 26.7656C251.545 26.1956 251.382 25.7474 251.056 25.4209C250.735 25.0944 250.239 24.9312 249.57 24.9312H247.569V28.5586ZM255.405 30.4263C255.405 29.5353 255.577 28.7412 255.92 28.0439C256.263 27.3467 256.756 26.8071 257.397 26.4253C258.045 26.0435 258.795 25.8525 259.647 25.8525C260.859 25.8525 261.847 26.2233 262.61 26.9648C263.38 27.7064 263.808 28.7135 263.897 29.9863L263.914 30.6006C263.914 31.9785 263.529 33.0853 262.76 33.9209C261.991 34.751 260.958 35.166 259.664 35.166C258.369 35.166 257.334 34.751 256.559 33.9209C255.79 33.0908 255.405 31.9619 255.405 30.5342V30.4263ZM257.804 30.6006C257.804 31.4528 257.965 32.1058 258.286 32.5596C258.607 33.0078 259.066 33.2319 259.664 33.2319C260.245 33.2319 260.698 33.0106 261.025 32.5679C261.351 32.1196 261.515 31.4058 261.515 30.4263C261.515 29.5907 261.351 28.9432 261.025 28.4839C260.698 28.0246 260.239 27.7949 259.647 27.7949C259.06 27.7949 258.607 28.0246 258.286 28.4839C257.965 28.9377 257.804 29.6432 257.804 30.6006ZM270.77 34.0869C270.178 34.8063 269.359 35.166 268.313 35.166C267.35 35.166 266.614 34.8893 266.105 34.3359C265.601 33.7826 265.344 32.9718 265.333 31.9038V26.0186H267.732V31.8208C267.732 32.756 268.158 33.2236 269.01 33.2236C269.824 33.2236 270.383 32.9414 270.687 32.377V26.0186H273.094V35H270.836L270.77 34.0869ZM277.776 23.8105V26.0186H279.312V27.7783H277.776V32.2607C277.776 32.5928 277.84 32.8307 277.967 32.9746C278.094 33.1185 278.338 33.1904 278.697 33.1904C278.963 33.1904 279.198 33.1711 279.403 33.1323V34.9502C278.932 35.0941 278.448 35.166 277.95 35.166C276.268 35.166 275.41 34.3166 275.377 32.6177V27.7783H274.065V26.0186H275.377V23.8105H277.776ZM284.782 35.166C283.465 35.166 282.391 34.762 281.561 33.9541C280.736 33.1462 280.324 32.0698 280.324 30.7251V30.4927C280.324 29.5907 280.499 28.7855 280.847 28.0771C281.196 27.3633 281.688 26.8154 282.325 26.4336C282.967 26.0462 283.697 25.8525 284.516 25.8525C285.745 25.8525 286.71 26.2399 287.413 27.0146C288.121 27.7894 288.476 28.8879 288.476 30.3101V31.2896H282.756C282.834 31.8761 283.066 32.3465 283.454 32.7007C283.847 33.0549 284.342 33.2319 284.939 33.2319C285.864 33.2319 286.586 32.8971 287.106 32.2275L288.285 33.5474C287.925 34.0565 287.438 34.4549 286.824 34.7427C286.209 35.0249 285.529 35.166 284.782 35.166ZM284.508 27.7949C284.032 27.7949 283.645 27.9554 283.346 28.2764C283.052 28.5973 282.864 29.0566 282.781 29.6543H286.118V29.4634C286.107 28.9321 285.963 28.5226 285.687 28.2349C285.41 27.9416 285.017 27.7949 284.508 27.7949ZM289.97 33.8213C289.97 33.4395 290.097 33.1296 290.352 32.8916C290.612 32.6536 290.935 32.5347 291.323 32.5347C291.716 32.5347 292.039 32.6536 292.294 32.8916C292.554 33.1296 292.684 33.4395 292.684 33.8213C292.684 34.1976 292.557 34.5047 292.302 34.7427C292.048 34.9751 291.721 35.0913 291.323 35.0913C290.93 35.0913 290.606 34.9751 290.352 34.7427C290.097 34.5047 289.97 34.1976 289.97 33.8213ZM294.917 33.8213C294.917 33.4395 295.044 33.1296 295.299 32.8916C295.559 32.6536 295.883 32.5347 296.27 32.5347C296.663 32.5347 296.987 32.6536 297.241 32.8916C297.501 33.1296 297.631 33.4395 297.631 33.8213C297.631 34.1976 297.504 34.5047 297.25 34.7427C296.995 34.9751 296.668 35.0913 296.27 35.0913C295.877 35.0913 295.553 34.9751 295.299 34.7427C295.044 34.5047 294.917 34.1976 294.917 33.8213ZM299.864 33.8213C299.864 33.4395 299.992 33.1296 300.246 32.8916C300.506 32.6536 300.83 32.5347 301.217 32.5347C301.61 32.5347 301.934 32.6536 302.188 32.8916C302.449 33.1296 302.579 33.4395 302.579 33.8213C302.579 34.1976 302.451 34.5047 302.197 34.7427C301.942 34.9751 301.616 35.0913 301.217 35.0913C300.824 35.0913 300.501 34.9751 300.246 34.7427C299.992 34.5047 299.864 34.1976 299.864 33.8213Z" fill="white"/>
<path d="M49.7764 154V89.3047H69.6826C75.3701 89.3047 80.4504 90.5933 84.9233 93.1704C89.4259 95.7179 92.9362 99.3615 95.4541 104.101C97.972 108.811 99.231 114.173 99.231 120.186V123.163C99.231 129.176 97.9868 134.523 95.4985 139.204C93.0399 143.884 89.5592 147.513 85.0566 150.09C80.554 152.667 75.4738 153.97 69.8159 154H49.7764ZM63.1064 100.102V143.292H69.5493C74.7629 143.292 78.7471 141.588 81.502 138.182C84.2568 134.775 85.6639 129.902 85.7231 123.563V120.142C85.7231 113.565 84.3605 108.589 81.6353 105.212C78.91 101.805 74.9258 100.102 69.6826 100.102H63.1064ZM106.118 129.517C106.118 124.748 107.036 120.497 108.873 116.765C110.71 113.032 113.346 110.144 116.782 108.1C120.248 106.056 124.262 105.034 128.824 105.034C135.311 105.034 140.599 107.019 144.687 110.988C148.804 114.958 151.1 120.349 151.574 127.162L151.663 130.45C151.663 137.826 149.604 143.751 145.486 148.224C141.369 152.667 135.844 154.889 128.913 154.889C121.981 154.889 116.442 152.667 112.294 148.224C108.177 143.78 106.118 137.737 106.118 130.095V129.517ZM118.959 130.45C118.959 135.012 119.819 138.507 121.537 140.937C123.255 143.336 125.713 144.536 128.913 144.536C132.023 144.536 134.452 143.351 136.2 140.981C137.947 138.582 138.821 134.76 138.821 129.517C138.821 125.044 137.947 121.578 136.2 119.12C134.452 116.661 131.993 115.432 128.824 115.432C125.684 115.432 123.255 116.661 121.537 119.12C119.819 121.549 118.959 125.326 118.959 130.45ZM171.613 105.923L172.013 111.299C175.42 107.123 180.026 105.034 185.832 105.034C192.023 105.034 196.274 107.478 198.584 112.366C201.961 107.478 206.775 105.034 213.025 105.034C218.239 105.034 222.119 106.56 224.667 109.611C227.215 112.632 228.488 117.194 228.488 123.296V154H215.603V123.341C215.603 120.616 215.069 118.631 214.003 117.387C212.937 116.113 211.056 115.476 208.36 115.476C204.509 115.476 201.843 117.313 200.362 120.986L200.406 154H187.565V123.385C187.565 120.601 187.017 118.586 185.921 117.342C184.825 116.098 182.959 115.476 180.322 115.476C176.679 115.476 174.042 116.987 172.413 120.008V154H159.572V105.923H171.613ZM266.257 154C265.664 152.845 265.235 151.408 264.968 149.69C261.858 153.156 257.814 154.889 252.838 154.889C248.128 154.889 244.218 153.526 241.107 150.801C238.027 148.076 236.486 144.639 236.486 140.492C236.486 135.397 238.367 131.487 242.129 128.762C245.921 126.036 251.386 124.659 258.525 124.629H264.435V121.875C264.435 119.653 263.857 117.875 262.702 116.542C261.576 115.209 259.784 114.543 257.326 114.543C255.163 114.543 253.46 115.061 252.216 116.098C251.001 117.135 250.394 118.557 250.394 120.364H237.553C237.553 117.579 238.412 115.002 240.13 112.632C241.848 110.263 244.277 108.411 247.417 107.078C250.557 105.715 254.082 105.034 257.992 105.034C263.917 105.034 268.612 106.53 272.078 109.522C275.573 112.484 277.321 116.661 277.321 122.052V142.892C277.35 147.453 277.987 150.904 279.231 153.245V154H266.257ZM255.637 145.069C257.533 145.069 259.281 144.654 260.88 143.825C262.48 142.966 263.665 141.825 264.435 140.403V132.139H259.636C253.208 132.139 249.787 134.36 249.372 138.804L249.328 139.559C249.328 141.159 249.89 142.477 251.016 143.514C252.142 144.55 253.682 145.069 255.637 145.069ZM300.737 154H287.852V105.923H300.737V154ZM287.096 93.4814C287.096 91.556 287.733 89.9712 289.007 88.7271C290.31 87.4829 292.073 86.8608 294.294 86.8608C296.486 86.8608 298.234 87.4829 299.538 88.7271C300.841 89.9712 301.493 91.556 301.493 93.4814C301.493 95.4365 300.826 97.0361 299.493 98.2803C298.19 99.5244 296.457 100.146 294.294 100.146C292.132 100.146 290.384 99.5244 289.051 98.2803C287.748 97.0361 287.096 95.4365 287.096 93.4814ZM323.176 105.923L323.576 111.477C327.012 107.182 331.619 105.034 337.395 105.034C342.49 105.034 346.282 106.53 348.77 109.522C351.258 112.514 352.532 116.987 352.591 122.941V154H339.75V123.252C339.75 120.527 339.158 118.557 337.973 117.342C336.788 116.098 334.818 115.476 332.063 115.476C328.449 115.476 325.739 117.016 323.932 120.097V154H311.09V105.923H323.176ZM415.687 154H402.846V104.501L387.516 109.255V98.8135L414.31 89.2158H415.687V154ZM57.3931 191.33H52.6084V202H46.6025V172.852H57.4331C60.8765 172.852 63.5324 173.619 65.4009 175.154C67.2694 176.689 68.2036 178.857 68.2036 181.66C68.2036 183.649 67.7699 185.31 66.9023 186.645C66.0482 187.966 64.7469 189.021 62.9985 189.808L69.3047 201.72V202H62.8584L57.3931 191.33ZM52.6084 186.465H57.4531C58.9613 186.465 60.1291 186.084 60.9565 185.324C61.784 184.55 62.1978 183.489 62.1978 182.141C62.1978 180.766 61.804 179.685 61.0166 178.897C60.2425 178.11 59.048 177.716 57.4331 177.716H52.6084V186.465ZM71.5068 190.969C71.5068 188.82 71.9206 186.905 72.748 185.224C73.5755 183.542 74.7633 182.241 76.3115 181.32C77.873 180.399 79.6815 179.938 81.7368 179.938C84.6597 179.938 87.042 180.833 88.8838 182.621C90.7389 184.41 91.7733 186.839 91.9868 189.908L92.0269 191.39C92.0269 194.713 91.0993 197.382 89.2441 199.397C87.389 201.399 84.8999 202.4 81.7769 202.4C78.6538 202.4 76.158 201.399 74.2896 199.397C72.4344 197.396 71.5068 194.673 71.5068 191.229V190.969ZM77.2925 191.39C77.2925 193.445 77.6795 195.02 78.4536 196.114C79.2277 197.195 80.3354 197.736 81.7769 197.736C83.1782 197.736 84.2726 197.202 85.0601 196.134C85.8475 195.053 86.2412 193.332 86.2412 190.969C86.2412 188.954 85.8475 187.392 85.0601 186.285C84.2726 185.177 83.1649 184.623 81.7368 184.623C80.3221 184.623 79.2277 185.177 78.4536 186.285C77.6795 187.379 77.2925 189.081 77.2925 191.39ZM108.563 199.798C107.135 201.533 105.16 202.4 102.637 202.4C100.315 202.4 98.5399 201.733 97.312 200.398C96.0975 199.064 95.4769 197.109 95.4502 194.533V180.339H101.236V194.333C101.236 196.588 102.264 197.716 104.319 197.716C106.281 197.716 107.629 197.035 108.363 195.674V180.339H114.168V202H108.723L108.563 199.798ZM125.459 175.014V180.339H129.163V184.583H125.459V195.394C125.459 196.194 125.613 196.768 125.92 197.115C126.227 197.462 126.814 197.636 127.682 197.636C128.322 197.636 128.889 197.589 129.383 197.496V201.88C128.249 202.227 127.081 202.4 125.88 202.4C121.823 202.4 119.754 200.352 119.674 196.254V184.583H116.511V180.339H119.674V175.014H125.459ZM142.356 202.4C139.18 202.4 136.59 201.426 134.588 199.478C132.6 197.529 131.605 194.933 131.605 191.69V191.129C131.605 188.954 132.026 187.012 132.867 185.304C133.708 183.582 134.895 182.261 136.43 181.34C137.978 180.406 139.74 179.938 141.715 179.938C144.678 179.938 147.007 180.873 148.702 182.741C150.41 184.61 151.265 187.259 151.265 190.689V193.051H137.471C137.658 194.466 138.219 195.6 139.153 196.455C140.1 197.309 141.295 197.736 142.736 197.736C144.965 197.736 146.707 196.928 147.961 195.313L150.804 198.497C149.937 199.724 148.762 200.685 147.281 201.379C145.799 202.06 144.158 202.4 142.356 202.4ZM141.695 184.623C140.548 184.623 139.613 185.01 138.893 185.784C138.185 186.558 137.731 187.666 137.531 189.107H145.579V188.647C145.552 187.366 145.205 186.378 144.538 185.684C143.871 184.977 142.923 184.623 141.695 184.623ZM178.591 202H172.806V179.698L165.899 181.84V177.136L177.971 172.812H178.591V202Z" fill="white"/>
<rect x="36.5" y="235.5" width="191" height="158" stroke="white" stroke-width="5"/>
<line x1="34" y1="268.5" x2="225" y2="268.5" stroke="white" stroke-width="5"/>
<path d="M51.6426 255.27C51.6426 254.716 51.4473 254.293 51.0566 254C50.666 253.701 49.9629 253.388 48.9473 253.062C47.9316 252.73 47.1276 252.405 46.5352 252.086C44.9206 251.214 44.1133 250.038 44.1133 248.561C44.1133 247.792 44.3281 247.109 44.7578 246.51C45.194 245.904 45.8158 245.432 46.623 245.094C47.4368 244.755 48.3483 244.586 49.3574 244.586C50.373 244.586 51.278 244.771 52.0723 245.143C52.8665 245.507 53.4818 246.025 53.918 246.695C54.3607 247.366 54.582 248.128 54.582 248.98H51.6523C51.6523 248.329 51.4473 247.825 51.0371 247.467C50.627 247.102 50.0508 246.92 49.3086 246.92C48.5924 246.92 48.0358 247.073 47.6387 247.379C47.2415 247.678 47.043 248.076 47.043 248.57C47.043 249.033 47.2741 249.42 47.7363 249.732C48.2051 250.045 48.8919 250.338 49.7969 250.611C51.4635 251.113 52.6777 251.734 53.4395 252.477C54.2012 253.219 54.582 254.143 54.582 255.25C54.582 256.48 54.1165 257.447 53.1855 258.15C52.2546 258.847 51.0013 259.195 49.4258 259.195C48.332 259.195 47.3359 258.997 46.4375 258.6C45.5391 258.196 44.8522 257.646 44.377 256.949C43.9082 256.253 43.6738 255.445 43.6738 254.527H46.6133C46.6133 256.096 47.5508 256.881 49.4258 256.881C50.1224 256.881 50.666 256.741 51.0566 256.461C51.4473 256.174 51.6426 255.777 51.6426 255.27ZM59.1426 249.586C59.8913 248.688 60.832 248.238 61.9648 248.238C64.2565 248.238 65.4186 249.57 65.4512 252.232V259H62.6289V252.311C62.6289 251.705 62.4987 251.259 62.2383 250.973C61.9779 250.68 61.5449 250.533 60.9395 250.533C60.1126 250.533 59.5137 250.852 59.1426 251.49V259H56.3203V244H59.1426V249.586ZM73.7031 259C73.5729 258.746 73.4785 258.43 73.4199 258.053C72.7363 258.814 71.8477 259.195 70.7539 259.195C69.7188 259.195 68.8594 258.896 68.1758 258.297C67.4987 257.698 67.1602 256.943 67.1602 256.031C67.1602 254.911 67.5736 254.052 68.4004 253.453C69.2337 252.854 70.4349 252.551 72.0039 252.545H73.3027V251.939C73.3027 251.451 73.1758 251.061 72.9219 250.768C72.6745 250.475 72.2806 250.328 71.7402 250.328C71.265 250.328 70.8906 250.442 70.6172 250.67C70.3503 250.898 70.2168 251.21 70.2168 251.607H67.3945C67.3945 250.995 67.5833 250.429 67.9609 249.908C68.3385 249.387 68.8724 248.98 69.5625 248.688C70.2526 248.388 71.0273 248.238 71.8867 248.238C73.1888 248.238 74.2207 248.567 74.9824 249.225C75.7507 249.876 76.1348 250.794 76.1348 251.979V256.559C76.1413 257.561 76.2812 258.32 76.5547 258.834V259H73.7031ZM71.3691 257.037C71.7858 257.037 72.1699 256.946 72.5215 256.764C72.873 256.575 73.1335 256.324 73.3027 256.012V254.195H72.248C70.8353 254.195 70.0833 254.684 69.9922 255.66L69.9824 255.826C69.9824 256.178 70.1061 256.467 70.3535 256.695C70.6009 256.923 70.9395 257.037 71.3691 257.037ZM84.2402 251.08C83.8561 251.028 83.5176 251.002 83.2246 251.002C82.1569 251.002 81.457 251.363 81.125 252.086V259H78.3027V248.434H80.9688L81.0469 249.693C81.6133 248.723 82.3978 248.238 83.4004 248.238C83.7129 248.238 84.0059 248.281 84.2793 248.365L84.2402 251.08ZM90.2754 259.195C88.7259 259.195 87.4629 258.72 86.4863 257.77C85.5163 256.819 85.0312 255.553 85.0312 253.971V253.697C85.0312 252.636 85.2363 251.689 85.6465 250.855C86.0566 250.016 86.6361 249.371 87.3848 248.922C88.14 248.466 88.9993 248.238 89.9629 248.238C91.4082 248.238 92.5443 248.694 93.3711 249.605C94.2044 250.517 94.6211 251.809 94.6211 253.482V254.635H87.8926C87.9837 255.325 88.2572 255.878 88.7129 256.295C89.1751 256.712 89.7578 256.92 90.4609 256.92C91.5482 256.92 92.3978 256.526 93.0098 255.738L94.3965 257.291C93.9733 257.89 93.4004 258.359 92.6777 258.697C91.9551 259.029 91.1543 259.195 90.2754 259.195ZM89.9531 250.523C89.3932 250.523 88.9375 250.712 88.5859 251.09C88.2409 251.467 88.0195 252.008 87.9219 252.711H91.8477V252.486C91.8346 251.861 91.6654 251.38 91.3398 251.041C91.0143 250.696 90.5521 250.523 89.9531 250.523ZM95.793 253.639C95.793 251.992 96.1608 250.68 96.8965 249.703C97.6387 248.727 98.651 248.238 99.9336 248.238C100.962 248.238 101.812 248.622 102.482 249.391V244H105.314V259H102.766L102.629 257.877C101.926 258.756 101.021 259.195 99.9141 259.195C98.6706 259.195 97.6712 258.707 96.916 257.73C96.1673 256.747 95.793 255.383 95.793 253.639ZM98.6152 253.844C98.6152 254.833 98.7878 255.592 99.1328 256.119C99.4779 256.646 99.9792 256.91 100.637 256.91C101.509 256.91 102.124 256.542 102.482 255.807V251.637C102.131 250.901 101.522 250.533 100.656 250.533C99.2956 250.533 98.6152 251.637 98.6152 253.844ZM116.877 256.92C117.398 256.92 117.821 256.777 118.146 256.49C118.472 256.204 118.641 255.823 118.654 255.348H121.301C121.294 256.064 121.099 256.721 120.715 257.32C120.331 257.913 119.803 258.375 119.133 258.707C118.469 259.033 117.733 259.195 116.926 259.195C115.415 259.195 114.224 258.717 113.352 257.76C112.479 256.796 112.043 255.468 112.043 253.775V253.59C112.043 251.962 112.476 250.663 113.342 249.693C114.208 248.723 115.396 248.238 116.906 248.238C118.228 248.238 119.286 248.616 120.08 249.371C120.881 250.12 121.288 251.119 121.301 252.369H118.654C118.641 251.822 118.472 251.38 118.146 251.041C117.821 250.696 117.391 250.523 116.857 250.523C116.2 250.523 115.702 250.764 115.363 251.246C115.031 251.721 114.865 252.496 114.865 253.57V253.863C114.865 254.951 115.031 255.732 115.363 256.207C115.695 256.682 116.2 256.92 116.877 256.92ZM122.473 253.619C122.473 252.571 122.674 251.637 123.078 250.816C123.482 249.996 124.061 249.361 124.816 248.912C125.578 248.463 126.46 248.238 127.463 248.238C128.889 248.238 130.051 248.674 130.949 249.547C131.854 250.419 132.359 251.604 132.463 253.102L132.482 253.824C132.482 255.445 132.03 256.747 131.125 257.73C130.22 258.707 129.006 259.195 127.482 259.195C125.959 259.195 124.742 258.707 123.83 257.73C122.925 256.754 122.473 255.426 122.473 253.746V253.619ZM125.295 253.824C125.295 254.827 125.484 255.595 125.861 256.129C126.239 256.656 126.779 256.92 127.482 256.92C128.166 256.92 128.7 256.66 129.084 256.139C129.468 255.611 129.66 254.771 129.66 253.619C129.66 252.636 129.468 251.874 129.084 251.334C128.7 250.794 128.16 250.523 127.463 250.523C126.773 250.523 126.239 250.794 125.861 251.334C125.484 251.868 125.295 252.698 125.295 253.824ZM136.867 248.434L136.955 249.615C137.704 248.697 138.716 248.238 139.992 248.238C141.353 248.238 142.287 248.775 142.795 249.85C143.537 248.775 144.595 248.238 145.969 248.238C147.115 248.238 147.967 248.574 148.527 249.244C149.087 249.908 149.367 250.911 149.367 252.252V259H146.535V252.262C146.535 251.663 146.418 251.227 146.184 250.953C145.949 250.673 145.536 250.533 144.943 250.533C144.097 250.533 143.511 250.937 143.186 251.744L143.195 259H140.373V252.271C140.373 251.66 140.253 251.217 140.012 250.943C139.771 250.67 139.361 250.533 138.781 250.533C137.98 250.533 137.401 250.865 137.043 251.529V259H134.221V248.434H136.867ZM161.057 253.814C161.057 255.442 160.686 256.747 159.943 257.73C159.208 258.707 158.212 259.195 156.955 259.195C155.887 259.195 155.025 258.824 154.367 258.082V263.062H151.545V248.434H154.162L154.26 249.469C154.943 248.648 155.835 248.238 156.936 248.238C158.238 248.238 159.25 248.72 159.973 249.684C160.695 250.647 161.057 251.975 161.057 253.668V253.814ZM158.234 253.609C158.234 252.626 158.059 251.868 157.707 251.334C157.362 250.8 156.857 250.533 156.193 250.533C155.308 250.533 154.699 250.872 154.367 251.549V255.875C154.712 256.572 155.327 256.92 156.213 256.92C157.561 256.92 158.234 255.816 158.234 253.609ZM162.375 253.619C162.375 252.571 162.577 251.637 162.98 250.816C163.384 249.996 163.964 249.361 164.719 248.912C165.48 248.463 166.363 248.238 167.365 248.238C168.791 248.238 169.953 248.674 170.852 249.547C171.757 250.419 172.261 251.604 172.365 253.102L172.385 253.824C172.385 255.445 171.932 256.747 171.027 257.73C170.122 258.707 168.908 259.195 167.385 259.195C165.861 259.195 164.644 258.707 163.732 257.73C162.827 256.754 162.375 255.426 162.375 253.746V253.619ZM165.197 253.824C165.197 254.827 165.386 255.595 165.764 256.129C166.141 256.656 166.682 256.92 167.385 256.92C168.068 256.92 168.602 256.66 168.986 256.139C169.37 255.611 169.562 254.771 169.562 253.619C169.562 252.636 169.37 251.874 168.986 251.334C168.602 250.794 168.062 250.523 167.365 250.523C166.675 250.523 166.141 250.794 165.764 251.334C165.386 251.868 165.197 252.698 165.197 253.824ZM176.721 248.434L176.809 249.654C177.564 248.71 178.576 248.238 179.846 248.238C180.965 248.238 181.799 248.567 182.346 249.225C182.893 249.882 183.173 250.865 183.186 252.174V259H180.363V252.242C180.363 251.643 180.233 251.21 179.973 250.943C179.712 250.67 179.279 250.533 178.674 250.533C177.88 250.533 177.284 250.872 176.887 251.549V259H174.064V248.434H176.721ZM190.197 259.195C188.648 259.195 187.385 258.72 186.408 257.77C185.438 256.819 184.953 255.553 184.953 253.971V253.697C184.953 252.636 185.158 251.689 185.568 250.855C185.979 250.016 186.558 249.371 187.307 248.922C188.062 248.466 188.921 248.238 189.885 248.238C191.33 248.238 192.466 248.694 193.293 249.605C194.126 250.517 194.543 251.809 194.543 253.482V254.635H187.814C187.906 255.325 188.179 255.878 188.635 256.295C189.097 256.712 189.68 256.92 190.383 256.92C191.47 256.92 192.32 256.526 192.932 255.738L194.318 257.291C193.895 257.89 193.322 258.359 192.6 258.697C191.877 259.029 191.076 259.195 190.197 259.195ZM189.875 250.523C189.315 250.523 188.859 250.712 188.508 251.09C188.163 251.467 187.941 252.008 187.844 252.711H191.77V252.486C191.757 251.861 191.587 251.38 191.262 251.041C190.936 250.696 190.474 250.523 189.875 250.523ZM198.752 248.434L198.84 249.654C199.595 248.71 200.607 248.238 201.877 248.238C202.997 248.238 203.83 248.567 204.377 249.225C204.924 249.882 205.204 250.865 205.217 252.174V259H202.395V252.242C202.395 251.643 202.264 251.21 202.004 250.943C201.743 250.67 201.311 250.533 200.705 250.533C199.911 250.533 199.315 250.872 198.918 251.549V259H196.096V248.434H198.752ZM210.744 245.836V248.434H212.551V250.504H210.744V255.777C210.744 256.168 210.819 256.448 210.969 256.617C211.118 256.786 211.405 256.871 211.828 256.871C212.141 256.871 212.417 256.848 212.658 256.803V258.941C212.105 259.111 211.535 259.195 210.949 259.195C208.97 259.195 207.961 258.196 207.922 256.197V250.504H206.379V248.434H207.922V245.836H210.744Z" fill="white"/>
<path d="M68.9043 306V284.672H75.4668C77.3418 284.672 79.0166 285.097 80.4912 285.946C81.9756 286.786 83.1328 287.987 83.9629 289.55C84.793 291.103 85.208 292.87 85.208 294.853V295.834C85.208 297.816 84.7979 299.579 83.9775 301.122C83.167 302.665 82.0195 303.861 80.5352 304.711C79.0508 305.561 77.376 305.99 75.5107 306H68.9043ZM73.2988 288.231V302.47H75.4229C77.1416 302.47 78.4551 301.908 79.3633 300.785C80.2715 299.662 80.7354 298.056 80.7549 295.966V294.838C80.7549 292.67 80.3057 291.029 79.4072 289.916C78.5088 288.793 77.1953 288.231 75.4668 288.231H73.2988ZM87.4785 297.929C87.4785 296.356 87.7812 294.955 88.3867 293.725C88.9922 292.494 89.8613 291.542 90.9941 290.868C92.1367 290.194 93.46 289.857 94.9639 289.857C97.1025 289.857 98.8457 290.512 100.193 291.82C101.551 293.129 102.308 294.906 102.464 297.152L102.493 298.236C102.493 300.668 101.814 302.621 100.457 304.096C99.0996 305.561 97.2783 306.293 94.9932 306.293C92.708 306.293 90.8818 305.561 89.5146 304.096C88.1572 302.631 87.4785 300.639 87.4785 298.119V297.929ZM91.7119 298.236C91.7119 299.74 91.9951 300.893 92.5615 301.693C93.1279 302.484 93.9385 302.88 94.9932 302.88C96.0186 302.88 96.8193 302.489 97.3955 301.708C97.9717 300.917 98.2598 299.657 98.2598 297.929C98.2598 296.454 97.9717 295.312 97.3955 294.501C96.8193 293.69 96.0088 293.285 94.9639 293.285C93.9287 293.285 93.1279 293.69 92.5615 294.501C91.9951 295.302 91.7119 296.547 91.7119 298.236ZM109.07 290.15L109.202 291.923C110.325 290.546 111.844 289.857 113.758 289.857C115.799 289.857 117.2 290.663 117.962 292.274C119.075 290.663 120.662 289.857 122.723 289.857C124.441 289.857 125.721 290.36 126.561 291.366C127.4 292.362 127.82 293.866 127.82 295.878V306H123.572V295.893C123.572 294.994 123.396 294.34 123.045 293.93C122.693 293.51 122.073 293.3 121.185 293.3C119.915 293.3 119.036 293.905 118.548 295.116L118.562 306H114.329V295.907C114.329 294.989 114.148 294.325 113.787 293.915C113.426 293.505 112.811 293.3 111.941 293.3C110.74 293.3 109.871 293.798 109.334 294.794V306H105.101V290.15H109.07ZM140.271 306C140.076 305.619 139.935 305.146 139.847 304.579C138.821 305.722 137.488 306.293 135.848 306.293C134.295 306.293 133.006 305.844 131.98 304.945C130.965 304.047 130.457 302.914 130.457 301.547C130.457 299.867 131.077 298.578 132.317 297.68C133.567 296.781 135.369 296.327 137.723 296.317H139.671V295.409C139.671 294.677 139.48 294.091 139.1 293.651C138.729 293.212 138.138 292.992 137.327 292.992C136.614 292.992 136.053 293.163 135.643 293.505C135.242 293.847 135.042 294.315 135.042 294.911H130.809C130.809 293.993 131.092 293.144 131.658 292.362C132.225 291.581 133.025 290.971 134.061 290.531C135.096 290.082 136.258 289.857 137.547 289.857C139.5 289.857 141.048 290.351 142.19 291.337C143.343 292.313 143.919 293.69 143.919 295.468V302.338C143.929 303.842 144.139 304.979 144.549 305.751V306H140.271ZM136.771 303.056C137.396 303.056 137.972 302.919 138.499 302.646C139.026 302.362 139.417 301.986 139.671 301.518V298.793H138.089C135.97 298.793 134.842 299.525 134.705 300.99L134.69 301.239C134.69 301.767 134.876 302.201 135.247 302.543C135.618 302.885 136.126 303.056 136.771 303.056ZM151.639 306H147.391V290.15H151.639V306ZM147.142 286.049C147.142 285.414 147.352 284.892 147.771 284.481C148.201 284.071 148.782 283.866 149.515 283.866C150.237 283.866 150.813 284.071 151.243 284.481C151.673 284.892 151.888 285.414 151.888 286.049C151.888 286.693 151.668 287.221 151.229 287.631C150.799 288.041 150.228 288.246 149.515 288.246C148.802 288.246 148.226 288.041 147.786 287.631C147.356 287.221 147.142 286.693 147.142 286.049ZM159.036 290.15L159.168 291.981C160.301 290.565 161.819 289.857 163.724 289.857C165.403 289.857 166.653 290.351 167.474 291.337C168.294 292.323 168.714 293.798 168.733 295.761V306H164.5V295.863C164.5 294.965 164.305 294.315 163.914 293.915C163.523 293.505 162.874 293.3 161.966 293.3C160.774 293.3 159.881 293.808 159.285 294.823V306H155.052V290.15H159.036ZM193.87 306H179.251V303.1L186.15 295.746C187.098 294.711 187.796 293.808 188.245 293.036C188.704 292.265 188.934 291.532 188.934 290.839C188.934 289.892 188.694 289.149 188.216 288.612C187.737 288.065 187.054 287.792 186.165 287.792C185.208 287.792 184.451 288.124 183.895 288.788C183.348 289.442 183.074 290.307 183.074 291.381H178.826C178.826 290.082 179.134 288.896 179.749 287.821C180.374 286.747 181.253 285.907 182.386 285.302C183.519 284.687 184.803 284.379 186.238 284.379C188.436 284.379 190.14 284.906 191.351 285.961C192.571 287.016 193.182 288.505 193.182 290.429C193.182 291.483 192.908 292.558 192.361 293.651C191.814 294.745 190.877 296.02 189.549 297.475L184.7 302.587H193.87V306Z" fill="#FAFAFA"/>
<rect x="267.5" y="235.5" width="191" height="158" stroke="white" stroke-width="5"/>
<line x1="265" y1="268.5" x2="456" y2="268.5" stroke="white" stroke-width="5"/>
<path d="M282.643 255.27C282.643 254.716 282.447 254.293 282.057 254C281.666 253.701 280.963 253.388 279.947 253.062C278.932 252.73 278.128 252.405 277.535 252.086C275.921 251.214 275.113 250.038 275.113 248.561C275.113 247.792 275.328 247.109 275.758 246.51C276.194 245.904 276.816 245.432 277.623 245.094C278.437 244.755 279.348 244.586 280.357 244.586C281.373 244.586 282.278 244.771 283.072 245.143C283.867 245.507 284.482 246.025 284.918 246.695C285.361 247.366 285.582 248.128 285.582 248.98H282.652C282.652 248.329 282.447 247.825 282.037 247.467C281.627 247.102 281.051 246.92 280.309 246.92C279.592 246.92 279.036 247.073 278.639 247.379C278.242 247.678 278.043 248.076 278.043 248.57C278.043 249.033 278.274 249.42 278.736 249.732C279.205 250.045 279.892 250.338 280.797 250.611C282.464 251.113 283.678 251.734 284.439 252.477C285.201 253.219 285.582 254.143 285.582 255.25C285.582 256.48 285.117 257.447 284.186 258.15C283.255 258.847 282.001 259.195 280.426 259.195C279.332 259.195 278.336 258.997 277.438 258.6C276.539 258.196 275.852 257.646 275.377 256.949C274.908 256.253 274.674 255.445 274.674 254.527H277.613C277.613 256.096 278.551 256.881 280.426 256.881C281.122 256.881 281.666 256.741 282.057 256.461C282.447 256.174 282.643 255.777 282.643 255.27ZM290.143 249.586C290.891 248.688 291.832 248.238 292.965 248.238C295.257 248.238 296.419 249.57 296.451 252.232V259H293.629V252.311C293.629 251.705 293.499 251.259 293.238 250.973C292.978 250.68 292.545 250.533 291.939 250.533C291.113 250.533 290.514 250.852 290.143 251.49V259H287.32V244H290.143V249.586ZM304.703 259C304.573 258.746 304.479 258.43 304.42 258.053C303.736 258.814 302.848 259.195 301.754 259.195C300.719 259.195 299.859 258.896 299.176 258.297C298.499 257.698 298.16 256.943 298.16 256.031C298.16 254.911 298.574 254.052 299.4 253.453C300.234 252.854 301.435 252.551 303.004 252.545H304.303V251.939C304.303 251.451 304.176 251.061 303.922 250.768C303.674 250.475 303.281 250.328 302.74 250.328C302.265 250.328 301.891 250.442 301.617 250.67C301.35 250.898 301.217 251.21 301.217 251.607H298.395C298.395 250.995 298.583 250.429 298.961 249.908C299.339 249.387 299.872 248.98 300.562 248.688C301.253 248.388 302.027 248.238 302.887 248.238C304.189 248.238 305.221 248.567 305.982 249.225C306.751 249.876 307.135 250.794 307.135 251.979V256.559C307.141 257.561 307.281 258.32 307.555 258.834V259H304.703ZM302.369 257.037C302.786 257.037 303.17 256.946 303.521 256.764C303.873 256.575 304.133 256.324 304.303 256.012V254.195H303.248C301.835 254.195 301.083 254.684 300.992 255.66L300.982 255.826C300.982 256.178 301.106 256.467 301.354 256.695C301.601 256.923 301.939 257.037 302.369 257.037ZM315.24 251.08C314.856 251.028 314.518 251.002 314.225 251.002C313.157 251.002 312.457 251.363 312.125 252.086V259H309.303V248.434H311.969L312.047 249.693C312.613 248.723 313.398 248.238 314.4 248.238C314.713 248.238 315.006 248.281 315.279 248.365L315.24 251.08ZM321.275 259.195C319.726 259.195 318.463 258.72 317.486 257.77C316.516 256.819 316.031 255.553 316.031 253.971V253.697C316.031 252.636 316.236 251.689 316.646 250.855C317.057 250.016 317.636 249.371 318.385 248.922C319.14 248.466 319.999 248.238 320.963 248.238C322.408 248.238 323.544 248.694 324.371 249.605C325.204 250.517 325.621 251.809 325.621 253.482V254.635H318.893C318.984 255.325 319.257 255.878 319.713 256.295C320.175 256.712 320.758 256.92 321.461 256.92C322.548 256.92 323.398 256.526 324.01 255.738L325.396 257.291C324.973 257.89 324.4 258.359 323.678 258.697C322.955 259.029 322.154 259.195 321.275 259.195ZM320.953 250.523C320.393 250.523 319.938 250.712 319.586 251.09C319.241 251.467 319.02 252.008 318.922 252.711H322.848V252.486C322.835 251.861 322.665 251.38 322.34 251.041C322.014 250.696 321.552 250.523 320.953 250.523ZM326.793 253.639C326.793 251.992 327.161 250.68 327.896 249.703C328.639 248.727 329.651 248.238 330.934 248.238C331.962 248.238 332.812 248.622 333.482 249.391V244H336.314V259H333.766L333.629 257.877C332.926 258.756 332.021 259.195 330.914 259.195C329.671 259.195 328.671 258.707 327.916 257.73C327.167 256.747 326.793 255.383 326.793 253.639ZM329.615 253.844C329.615 254.833 329.788 255.592 330.133 256.119C330.478 256.646 330.979 256.91 331.637 256.91C332.509 256.91 333.124 256.542 333.482 255.807V251.637C333.131 250.901 332.522 250.533 331.656 250.533C330.296 250.533 329.615 251.637 329.615 253.844ZM347.877 256.92C348.398 256.92 348.821 256.777 349.146 256.49C349.472 256.204 349.641 255.823 349.654 255.348H352.301C352.294 256.064 352.099 256.721 351.715 257.32C351.331 257.913 350.803 258.375 350.133 258.707C349.469 259.033 348.733 259.195 347.926 259.195C346.415 259.195 345.224 258.717 344.352 257.76C343.479 256.796 343.043 255.468 343.043 253.775V253.59C343.043 251.962 343.476 250.663 344.342 249.693C345.208 248.723 346.396 248.238 347.906 248.238C349.228 248.238 350.286 248.616 351.08 249.371C351.881 250.12 352.288 251.119 352.301 252.369H349.654C349.641 251.822 349.472 251.38 349.146 251.041C348.821 250.696 348.391 250.523 347.857 250.523C347.2 250.523 346.702 250.764 346.363 251.246C346.031 251.721 345.865 252.496 345.865 253.57V253.863C345.865 254.951 346.031 255.732 346.363 256.207C346.695 256.682 347.2 256.92 347.877 256.92ZM353.473 253.619C353.473 252.571 353.674 251.637 354.078 250.816C354.482 249.996 355.061 249.361 355.816 248.912C356.578 248.463 357.46 248.238 358.463 248.238C359.889 248.238 361.051 248.674 361.949 249.547C362.854 250.419 363.359 251.604 363.463 253.102L363.482 253.824C363.482 255.445 363.03 256.747 362.125 257.73C361.22 258.707 360.006 259.195 358.482 259.195C356.959 259.195 355.742 258.707 354.83 257.73C353.925 256.754 353.473 255.426 353.473 253.746V253.619ZM356.295 253.824C356.295 254.827 356.484 255.595 356.861 256.129C357.239 256.656 357.779 256.92 358.482 256.92C359.166 256.92 359.7 256.66 360.084 256.139C360.468 255.611 360.66 254.771 360.66 253.619C360.66 252.636 360.468 251.874 360.084 251.334C359.7 250.794 359.16 250.523 358.463 250.523C357.773 250.523 357.239 250.794 356.861 251.334C356.484 251.868 356.295 252.698 356.295 253.824ZM367.867 248.434L367.955 249.615C368.704 248.697 369.716 248.238 370.992 248.238C372.353 248.238 373.287 248.775 373.795 249.85C374.537 248.775 375.595 248.238 376.969 248.238C378.115 248.238 378.967 248.574 379.527 249.244C380.087 249.908 380.367 250.911 380.367 252.252V259H377.535V252.262C377.535 251.663 377.418 251.227 377.184 250.953C376.949 250.673 376.536 250.533 375.943 250.533C375.097 250.533 374.511 250.937 374.186 251.744L374.195 259H371.373V252.271C371.373 251.66 371.253 251.217 371.012 250.943C370.771 250.67 370.361 250.533 369.781 250.533C368.98 250.533 368.401 250.865 368.043 251.529V259H365.221V248.434H367.867ZM392.057 253.814C392.057 255.442 391.686 256.747 390.943 257.73C390.208 258.707 389.212 259.195 387.955 259.195C386.887 259.195 386.025 258.824 385.367 258.082V263.062H382.545V248.434H385.162L385.26 249.469C385.943 248.648 386.835 248.238 387.936 248.238C389.238 248.238 390.25 248.72 390.973 249.684C391.695 250.647 392.057 251.975 392.057 253.668V253.814ZM389.234 253.609C389.234 252.626 389.059 251.868 388.707 251.334C388.362 250.8 387.857 250.533 387.193 250.533C386.308 250.533 385.699 250.872 385.367 251.549V255.875C385.712 256.572 386.327 256.92 387.213 256.92C388.561 256.92 389.234 255.816 389.234 253.609ZM393.375 253.619C393.375 252.571 393.577 251.637 393.98 250.816C394.384 249.996 394.964 249.361 395.719 248.912C396.48 248.463 397.363 248.238 398.365 248.238C399.791 248.238 400.953 248.674 401.852 249.547C402.757 250.419 403.261 251.604 403.365 253.102L403.385 253.824C403.385 255.445 402.932 256.747 402.027 257.73C401.122 258.707 399.908 259.195 398.385 259.195C396.861 259.195 395.644 258.707 394.732 257.73C393.827 256.754 393.375 255.426 393.375 253.746V253.619ZM396.197 253.824C396.197 254.827 396.386 255.595 396.764 256.129C397.141 256.656 397.682 256.92 398.385 256.92C399.068 256.92 399.602 256.66 399.986 256.139C400.37 255.611 400.562 254.771 400.562 253.619C400.562 252.636 400.37 251.874 399.986 251.334C399.602 250.794 399.062 250.523 398.365 250.523C397.675 250.523 397.141 250.794 396.764 251.334C396.386 251.868 396.197 252.698 396.197 253.824ZM407.721 248.434L407.809 249.654C408.564 248.71 409.576 248.238 410.846 248.238C411.965 248.238 412.799 248.567 413.346 249.225C413.893 249.882 414.173 250.865 414.186 252.174V259H411.363V252.242C411.363 251.643 411.233 251.21 410.973 250.943C410.712 250.67 410.279 250.533 409.674 250.533C408.88 250.533 408.284 250.872 407.887 251.549V259H405.064V248.434H407.721ZM421.197 259.195C419.648 259.195 418.385 258.72 417.408 257.77C416.438 256.819 415.953 255.553 415.953 253.971V253.697C415.953 252.636 416.158 251.689 416.568 250.855C416.979 250.016 417.558 249.371 418.307 248.922C419.062 248.466 419.921 248.238 420.885 248.238C422.33 248.238 423.466 248.694 424.293 249.605C425.126 250.517 425.543 251.809 425.543 253.482V254.635H418.814C418.906 255.325 419.179 255.878 419.635 256.295C420.097 256.712 420.68 256.92 421.383 256.92C422.47 256.92 423.32 256.526 423.932 255.738L425.318 257.291C424.895 257.89 424.322 258.359 423.6 258.697C422.877 259.029 422.076 259.195 421.197 259.195ZM420.875 250.523C420.315 250.523 419.859 250.712 419.508 251.09C419.163 251.467 418.941 252.008 418.844 252.711H422.77V252.486C422.757 251.861 422.587 251.38 422.262 251.041C421.936 250.696 421.474 250.523 420.875 250.523ZM429.752 248.434L429.84 249.654C430.595 248.71 431.607 248.238 432.877 248.238C433.997 248.238 434.83 248.567 435.377 249.225C435.924 249.882 436.204 250.865 436.217 252.174V259H433.395V252.242C433.395 251.643 433.264 251.21 433.004 250.943C432.743 250.67 432.311 250.533 431.705 250.533C430.911 250.533 430.315 250.872 429.918 251.549V259H427.096V248.434H429.752ZM441.744 245.836V248.434H443.551V250.504H441.744V255.777C441.744 256.168 441.819 256.448 441.969 256.617C442.118 256.786 442.405 256.871 442.828 256.871C443.141 256.871 443.417 256.848 443.658 256.803V258.941C443.105 259.111 442.535 259.195 441.949 259.195C439.97 259.195 438.961 258.196 438.922 256.197V250.504H437.379V248.434H438.922V245.836H441.744Z" fill="white"/>
<path d="M299.904 307V285.672H306.467C308.342 285.672 310.017 286.097 311.491 286.946C312.976 287.786 314.133 288.987 314.963 290.55C315.793 292.103 316.208 293.87 316.208 295.853V296.834C316.208 298.816 315.798 300.579 314.978 302.122C314.167 303.665 313.02 304.861 311.535 305.711C310.051 306.561 308.376 306.99 306.511 307H299.904ZM304.299 289.231V303.47H306.423C308.142 303.47 309.455 302.908 310.363 301.785C311.271 300.662 311.735 299.056 311.755 296.966V295.838C311.755 293.67 311.306 292.029 310.407 290.916C309.509 289.793 308.195 289.231 306.467 289.231H304.299ZM318.479 298.929C318.479 297.356 318.781 295.955 319.387 294.725C319.992 293.494 320.861 292.542 321.994 291.868C323.137 291.194 324.46 290.857 325.964 290.857C328.103 290.857 329.846 291.512 331.193 292.82C332.551 294.129 333.308 295.906 333.464 298.152L333.493 299.236C333.493 301.668 332.814 303.621 331.457 305.096C330.1 306.561 328.278 307.293 325.993 307.293C323.708 307.293 321.882 306.561 320.515 305.096C319.157 303.631 318.479 301.639 318.479 299.119V298.929ZM322.712 299.236C322.712 300.74 322.995 301.893 323.562 302.693C324.128 303.484 324.938 303.88 325.993 303.88C327.019 303.88 327.819 303.489 328.396 302.708C328.972 301.917 329.26 300.657 329.26 298.929C329.26 297.454 328.972 296.312 328.396 295.501C327.819 294.69 327.009 294.285 325.964 294.285C324.929 294.285 324.128 294.69 323.562 295.501C322.995 296.302 322.712 297.547 322.712 299.236ZM340.07 291.15L340.202 292.923C341.325 291.546 342.844 290.857 344.758 290.857C346.799 290.857 348.2 291.663 348.962 293.274C350.075 291.663 351.662 290.857 353.723 290.857C355.441 290.857 356.721 291.36 357.561 292.366C358.4 293.362 358.82 294.866 358.82 296.878V307H354.572V296.893C354.572 295.994 354.396 295.34 354.045 294.93C353.693 294.51 353.073 294.3 352.185 294.3C350.915 294.3 350.036 294.905 349.548 296.116L349.562 307H345.329V296.907C345.329 295.989 345.148 295.325 344.787 294.915C344.426 294.505 343.811 294.3 342.941 294.3C341.74 294.3 340.871 294.798 340.334 295.794V307H336.101V291.15H340.07ZM371.271 307C371.076 306.619 370.935 306.146 370.847 305.579C369.821 306.722 368.488 307.293 366.848 307.293C365.295 307.293 364.006 306.844 362.98 305.945C361.965 305.047 361.457 303.914 361.457 302.547C361.457 300.867 362.077 299.578 363.317 298.68C364.567 297.781 366.369 297.327 368.723 297.317H370.671V296.409C370.671 295.677 370.48 295.091 370.1 294.651C369.729 294.212 369.138 293.992 368.327 293.992C367.614 293.992 367.053 294.163 366.643 294.505C366.242 294.847 366.042 295.315 366.042 295.911H361.809C361.809 294.993 362.092 294.144 362.658 293.362C363.225 292.581 364.025 291.971 365.061 291.531C366.096 291.082 367.258 290.857 368.547 290.857C370.5 290.857 372.048 291.351 373.19 292.337C374.343 293.313 374.919 294.69 374.919 296.468V303.338C374.929 304.842 375.139 305.979 375.549 306.751V307H371.271ZM367.771 304.056C368.396 304.056 368.972 303.919 369.499 303.646C370.026 303.362 370.417 302.986 370.671 302.518V299.793H369.089C366.97 299.793 365.842 300.525 365.705 301.99L365.69 302.239C365.69 302.767 365.876 303.201 366.247 303.543C366.618 303.885 367.126 304.056 367.771 304.056ZM382.639 307H378.391V291.15H382.639V307ZM378.142 287.049C378.142 286.414 378.352 285.892 378.771 285.481C379.201 285.071 379.782 284.866 380.515 284.866C381.237 284.866 381.813 285.071 382.243 285.481C382.673 285.892 382.888 286.414 382.888 287.049C382.888 287.693 382.668 288.221 382.229 288.631C381.799 289.041 381.228 289.246 380.515 289.246C379.802 289.246 379.226 289.041 378.786 288.631C378.356 288.221 378.142 287.693 378.142 287.049ZM390.036 291.15L390.168 292.981C391.301 291.565 392.819 290.857 394.724 290.857C396.403 290.857 397.653 291.351 398.474 292.337C399.294 293.323 399.714 294.798 399.733 296.761V307H395.5V296.863C395.5 295.965 395.305 295.315 394.914 294.915C394.523 294.505 393.874 294.3 392.966 294.3C391.774 294.3 390.881 294.808 390.285 295.823V307H386.052V291.15H390.036ZM414.558 294.461H416.813C417.888 294.461 418.684 294.192 419.201 293.655C419.719 293.118 419.978 292.405 419.978 291.517C419.978 290.657 419.719 289.988 419.201 289.51C418.693 289.031 417.99 288.792 417.092 288.792C416.281 288.792 415.603 289.017 415.056 289.466C414.509 289.905 414.235 290.481 414.235 291.194H410.002C410.002 290.081 410.3 289.085 410.896 288.206C411.501 287.317 412.341 286.624 413.415 286.126C414.499 285.628 415.69 285.379 416.989 285.379C419.245 285.379 421.013 285.921 422.292 287.005C423.571 288.079 424.211 289.563 424.211 291.458C424.211 292.435 423.913 293.333 423.317 294.153C422.722 294.974 421.94 295.604 420.974 296.043C422.175 296.473 423.068 297.117 423.654 297.977C424.25 298.836 424.548 299.852 424.548 301.023C424.548 302.918 423.854 304.437 422.468 305.579C421.091 306.722 419.265 307.293 416.989 307.293C414.86 307.293 413.117 306.731 411.76 305.608C410.412 304.485 409.738 303.001 409.738 301.155H413.972C413.972 301.956 414.27 302.61 414.865 303.118C415.471 303.626 416.213 303.88 417.092 303.88C418.098 303.88 418.884 303.616 419.45 303.089C420.026 302.552 420.314 301.844 420.314 300.965C420.314 298.836 419.143 297.771 416.799 297.771H414.558V294.461Z" fill="#FAFAFA"/>
<rect x="490.5" y="235.5" width="191" height="158" stroke="white" stroke-width="5"/>
<line x1="488" y1="268.5" x2="679" y2="268.5" stroke="white" stroke-width="5"/>
<path d="M505.643 255.27C505.643 254.716 505.447 254.293 505.057 254C504.666 253.701 503.963 253.388 502.947 253.062C501.932 252.73 501.128 252.405 500.535 252.086C498.921 251.214 498.113 250.038 498.113 248.561C498.113 247.792 498.328 247.109 498.758 246.51C499.194 245.904 499.816 245.432 500.623 245.094C501.437 244.755 502.348 244.586 503.357 244.586C504.373 244.586 505.278 244.771 506.072 245.143C506.867 245.507 507.482 246.025 507.918 246.695C508.361 247.366 508.582 248.128 508.582 248.98H505.652C505.652 248.329 505.447 247.825 505.037 247.467C504.627 247.102 504.051 246.92 503.309 246.92C502.592 246.92 502.036 247.073 501.639 247.379C501.242 247.678 501.043 248.076 501.043 248.57C501.043 249.033 501.274 249.42 501.736 249.732C502.205 250.045 502.892 250.338 503.797 250.611C505.464 251.113 506.678 251.734 507.439 252.477C508.201 253.219 508.582 254.143 508.582 255.25C508.582 256.48 508.117 257.447 507.186 258.15C506.255 258.847 505.001 259.195 503.426 259.195C502.332 259.195 501.336 258.997 500.438 258.6C499.539 258.196 498.852 257.646 498.377 256.949C497.908 256.253 497.674 255.445 497.674 254.527H500.613C500.613 256.096 501.551 256.881 503.426 256.881C504.122 256.881 504.666 256.741 505.057 256.461C505.447 256.174 505.643 255.777 505.643 255.27ZM513.143 249.586C513.891 248.688 514.832 248.238 515.965 248.238C518.257 248.238 519.419 249.57 519.451 252.232V259H516.629V252.311C516.629 251.705 516.499 251.259 516.238 250.973C515.978 250.68 515.545 250.533 514.939 250.533C514.113 250.533 513.514 250.852 513.143 251.49V259H510.32V244H513.143V249.586ZM527.703 259C527.573 258.746 527.479 258.43 527.42 258.053C526.736 258.814 525.848 259.195 524.754 259.195C523.719 259.195 522.859 258.896 522.176 258.297C521.499 257.698 521.16 256.943 521.16 256.031C521.16 254.911 521.574 254.052 522.4 253.453C523.234 252.854 524.435 252.551 526.004 252.545H527.303V251.939C527.303 251.451 527.176 251.061 526.922 250.768C526.674 250.475 526.281 250.328 525.74 250.328C525.265 250.328 524.891 250.442 524.617 250.67C524.35 250.898 524.217 251.21 524.217 251.607H521.395C521.395 250.995 521.583 250.429 521.961 249.908C522.339 249.387 522.872 248.98 523.562 248.688C524.253 248.388 525.027 248.238 525.887 248.238C527.189 248.238 528.221 248.567 528.982 249.225C529.751 249.876 530.135 250.794 530.135 251.979V256.559C530.141 257.561 530.281 258.32 530.555 258.834V259H527.703ZM525.369 257.037C525.786 257.037 526.17 256.946 526.521 256.764C526.873 256.575 527.133 256.324 527.303 256.012V254.195H526.248C524.835 254.195 524.083 254.684 523.992 255.66L523.982 255.826C523.982 256.178 524.106 256.467 524.354 256.695C524.601 256.923 524.939 257.037 525.369 257.037ZM538.24 251.08C537.856 251.028 537.518 251.002 537.225 251.002C536.157 251.002 535.457 251.363 535.125 252.086V259H532.303V248.434H534.969L535.047 249.693C535.613 248.723 536.398 248.238 537.4 248.238C537.713 248.238 538.006 248.281 538.279 248.365L538.24 251.08ZM544.275 259.195C542.726 259.195 541.463 258.72 540.486 257.77C539.516 256.819 539.031 255.553 539.031 253.971V253.697C539.031 252.636 539.236 251.689 539.646 250.855C540.057 250.016 540.636 249.371 541.385 248.922C542.14 248.466 542.999 248.238 543.963 248.238C545.408 248.238 546.544 248.694 547.371 249.605C548.204 250.517 548.621 251.809 548.621 253.482V254.635H541.893C541.984 255.325 542.257 255.878 542.713 256.295C543.175 256.712 543.758 256.92 544.461 256.92C545.548 256.92 546.398 256.526 547.01 255.738L548.396 257.291C547.973 257.89 547.4 258.359 546.678 258.697C545.955 259.029 545.154 259.195 544.275 259.195ZM543.953 250.523C543.393 250.523 542.938 250.712 542.586 251.09C542.241 251.467 542.02 252.008 541.922 252.711H545.848V252.486C545.835 251.861 545.665 251.38 545.34 251.041C545.014 250.696 544.552 250.523 543.953 250.523ZM549.793 253.639C549.793 251.992 550.161 250.68 550.896 249.703C551.639 248.727 552.651 248.238 553.934 248.238C554.962 248.238 555.812 248.622 556.482 249.391V244H559.314V259H556.766L556.629 257.877C555.926 258.756 555.021 259.195 553.914 259.195C552.671 259.195 551.671 258.707 550.916 257.73C550.167 256.747 549.793 255.383 549.793 253.639ZM552.615 253.844C552.615 254.833 552.788 255.592 553.133 256.119C553.478 256.646 553.979 256.91 554.637 256.91C555.509 256.91 556.124 256.542 556.482 255.807V251.637C556.131 250.901 555.522 250.533 554.656 250.533C553.296 250.533 552.615 251.637 552.615 253.844ZM570.877 256.92C571.398 256.92 571.821 256.777 572.146 256.49C572.472 256.204 572.641 255.823 572.654 255.348H575.301C575.294 256.064 575.099 256.721 574.715 257.32C574.331 257.913 573.803 258.375 573.133 258.707C572.469 259.033 571.733 259.195 570.926 259.195C569.415 259.195 568.224 258.717 567.352 257.76C566.479 256.796 566.043 255.468 566.043 253.775V253.59C566.043 251.962 566.476 250.663 567.342 249.693C568.208 248.723 569.396 248.238 570.906 248.238C572.228 248.238 573.286 248.616 574.08 249.371C574.881 250.12 575.288 251.119 575.301 252.369H572.654C572.641 251.822 572.472 251.38 572.146 251.041C571.821 250.696 571.391 250.523 570.857 250.523C570.2 250.523 569.702 250.764 569.363 251.246C569.031 251.721 568.865 252.496 568.865 253.57V253.863C568.865 254.951 569.031 255.732 569.363 256.207C569.695 256.682 570.2 256.92 570.877 256.92ZM576.473 253.619C576.473 252.571 576.674 251.637 577.078 250.816C577.482 249.996 578.061 249.361 578.816 248.912C579.578 248.463 580.46 248.238 581.463 248.238C582.889 248.238 584.051 248.674 584.949 249.547C585.854 250.419 586.359 251.604 586.463 253.102L586.482 253.824C586.482 255.445 586.03 256.747 585.125 257.73C584.22 258.707 583.006 259.195 581.482 259.195C579.959 259.195 578.742 258.707 577.83 257.73C576.925 256.754 576.473 255.426 576.473 253.746V253.619ZM579.295 253.824C579.295 254.827 579.484 255.595 579.861 256.129C580.239 256.656 580.779 256.92 581.482 256.92C582.166 256.92 582.7 256.66 583.084 256.139C583.468 255.611 583.66 254.771 583.66 253.619C583.66 252.636 583.468 251.874 583.084 251.334C582.7 250.794 582.16 250.523 581.463 250.523C580.773 250.523 580.239 250.794 579.861 251.334C579.484 251.868 579.295 252.698 579.295 253.824ZM590.867 248.434L590.955 249.615C591.704 248.697 592.716 248.238 593.992 248.238C595.353 248.238 596.287 248.775 596.795 249.85C597.537 248.775 598.595 248.238 599.969 248.238C601.115 248.238 601.967 248.574 602.527 249.244C603.087 249.908 603.367 250.911 603.367 252.252V259H600.535V252.262C600.535 251.663 600.418 251.227 600.184 250.953C599.949 250.673 599.536 250.533 598.943 250.533C598.097 250.533 597.511 250.937 597.186 251.744L597.195 259H594.373V252.271C594.373 251.66 594.253 251.217 594.012 250.943C593.771 250.67 593.361 250.533 592.781 250.533C591.98 250.533 591.401 250.865 591.043 251.529V259H588.221V248.434H590.867ZM615.057 253.814C615.057 255.442 614.686 256.747 613.943 257.73C613.208 258.707 612.212 259.195 610.955 259.195C609.887 259.195 609.025 258.824 608.367 258.082V263.062H605.545V248.434H608.162L608.26 249.469C608.943 248.648 609.835 248.238 610.936 248.238C612.238 248.238 613.25 248.72 613.973 249.684C614.695 250.647 615.057 251.975 615.057 253.668V253.814ZM612.234 253.609C612.234 252.626 612.059 251.868 611.707 251.334C611.362 250.8 610.857 250.533 610.193 250.533C609.308 250.533 608.699 250.872 608.367 251.549V255.875C608.712 256.572 609.327 256.92 610.213 256.92C611.561 256.92 612.234 255.816 612.234 253.609ZM616.375 253.619C616.375 252.571 616.577 251.637 616.98 250.816C617.384 249.996 617.964 249.361 618.719 248.912C619.48 248.463 620.363 248.238 621.365 248.238C622.791 248.238 623.953 248.674 624.852 249.547C625.757 250.419 626.261 251.604 626.365 253.102L626.385 253.824C626.385 255.445 625.932 256.747 625.027 257.73C624.122 258.707 622.908 259.195 621.385 259.195C619.861 259.195 618.644 258.707 617.732 257.73C616.827 256.754 616.375 255.426 616.375 253.746V253.619ZM619.197 253.824C619.197 254.827 619.386 255.595 619.764 256.129C620.141 256.656 620.682 256.92 621.385 256.92C622.068 256.92 622.602 256.66 622.986 256.139C623.37 255.611 623.562 254.771 623.562 253.619C623.562 252.636 623.37 251.874 622.986 251.334C622.602 250.794 622.062 250.523 621.365 250.523C620.675 250.523 620.141 250.794 619.764 251.334C619.386 251.868 619.197 252.698 619.197 253.824ZM630.721 248.434L630.809 249.654C631.564 248.71 632.576 248.238 633.846 248.238C634.965 248.238 635.799 248.567 636.346 249.225C636.893 249.882 637.173 250.865 637.186 252.174V259H634.363V252.242C634.363 251.643 634.233 251.21 633.973 250.943C633.712 250.67 633.279 250.533 632.674 250.533C631.88 250.533 631.284 250.872 630.887 251.549V259H628.064V248.434H630.721ZM644.197 259.195C642.648 259.195 641.385 258.72 640.408 257.77C639.438 256.819 638.953 255.553 638.953 253.971V253.697C638.953 252.636 639.158 251.689 639.568 250.855C639.979 250.016 640.558 249.371 641.307 248.922C642.062 248.466 642.921 248.238 643.885 248.238C645.33 248.238 646.466 248.694 647.293 249.605C648.126 250.517 648.543 251.809 648.543 253.482V254.635H641.814C641.906 255.325 642.179 255.878 642.635 256.295C643.097 256.712 643.68 256.92 644.383 256.92C645.47 256.92 646.32 256.526 646.932 255.738L648.318 257.291C647.895 257.89 647.322 258.359 646.6 258.697C645.877 259.029 645.076 259.195 644.197 259.195ZM643.875 250.523C643.315 250.523 642.859 250.712 642.508 251.09C642.163 251.467 641.941 252.008 641.844 252.711H645.77V252.486C645.757 251.861 645.587 251.38 645.262 251.041C644.936 250.696 644.474 250.523 643.875 250.523ZM652.752 248.434L652.84 249.654C653.595 248.71 654.607 248.238 655.877 248.238C656.997 248.238 657.83 248.567 658.377 249.225C658.924 249.882 659.204 250.865 659.217 252.174V259H656.395V252.242C656.395 251.643 656.264 251.21 656.004 250.943C655.743 250.67 655.311 250.533 654.705 250.533C653.911 250.533 653.315 250.872 652.918 251.549V259H650.096V248.434H652.752ZM664.744 245.836V248.434H666.551V250.504H664.744V255.777C664.744 256.168 664.819 256.448 664.969 256.617C665.118 256.786 665.405 256.871 665.828 256.871C666.141 256.871 666.417 256.848 666.658 256.803V258.941C666.105 259.111 665.535 259.195 664.949 259.195C662.97 259.195 661.961 258.196 661.922 256.197V250.504H660.379V248.434H661.922V245.836H664.744Z" fill="white"/>
<path d="M522.904 307V285.672H529.467C531.342 285.672 533.017 286.097 534.491 286.946C535.976 287.786 537.133 288.987 537.963 290.55C538.793 292.103 539.208 293.87 539.208 295.853V296.834C539.208 298.816 538.798 300.579 537.978 302.122C537.167 303.665 536.02 304.861 534.535 305.711C533.051 306.561 531.376 306.99 529.511 307H522.904ZM527.299 289.231V303.47H529.423C531.142 303.47 532.455 302.908 533.363 301.785C534.271 300.662 534.735 299.056 534.755 296.966V295.838C534.755 293.67 534.306 292.029 533.407 290.916C532.509 289.793 531.195 289.231 529.467 289.231H527.299ZM541.479 298.929C541.479 297.356 541.781 295.955 542.387 294.725C542.992 293.494 543.861 292.542 544.994 291.868C546.137 291.194 547.46 290.857 548.964 290.857C551.103 290.857 552.846 291.512 554.193 292.82C555.551 294.129 556.308 295.906 556.464 298.152L556.493 299.236C556.493 301.668 555.814 303.621 554.457 305.096C553.1 306.561 551.278 307.293 548.993 307.293C546.708 307.293 544.882 306.561 543.515 305.096C542.157 303.631 541.479 301.639 541.479 299.119V298.929ZM545.712 299.236C545.712 300.74 545.995 301.893 546.562 302.693C547.128 303.484 547.938 303.88 548.993 303.88C550.019 303.88 550.819 303.489 551.396 302.708C551.972 301.917 552.26 300.657 552.26 298.929C552.26 297.454 551.972 296.312 551.396 295.501C550.819 294.69 550.009 294.285 548.964 294.285C547.929 294.285 547.128 294.69 546.562 295.501C545.995 296.302 545.712 297.547 545.712 299.236ZM563.07 291.15L563.202 292.923C564.325 291.546 565.844 290.857 567.758 290.857C569.799 290.857 571.2 291.663 571.962 293.274C573.075 291.663 574.662 290.857 576.723 290.857C578.441 290.857 579.721 291.36 580.561 292.366C581.4 293.362 581.82 294.866 581.82 296.878V307H577.572V296.893C577.572 295.994 577.396 295.34 577.045 294.93C576.693 294.51 576.073 294.3 575.185 294.3C573.915 294.3 573.036 294.905 572.548 296.116L572.562 307H568.329V296.907C568.329 295.989 568.148 295.325 567.787 294.915C567.426 294.505 566.811 294.3 565.941 294.3C564.74 294.3 563.871 294.798 563.334 295.794V307H559.101V291.15H563.07ZM594.271 307C594.076 306.619 593.935 306.146 593.847 305.579C592.821 306.722 591.488 307.293 589.848 307.293C588.295 307.293 587.006 306.844 585.98 305.945C584.965 305.047 584.457 303.914 584.457 302.547C584.457 300.867 585.077 299.578 586.317 298.68C587.567 297.781 589.369 297.327 591.723 297.317H593.671V296.409C593.671 295.677 593.48 295.091 593.1 294.651C592.729 294.212 592.138 293.992 591.327 293.992C590.614 293.992 590.053 294.163 589.643 294.505C589.242 294.847 589.042 295.315 589.042 295.911H584.809C584.809 294.993 585.092 294.144 585.658 293.362C586.225 292.581 587.025 291.971 588.061 291.531C589.096 291.082 590.258 290.857 591.547 290.857C593.5 290.857 595.048 291.351 596.19 292.337C597.343 293.313 597.919 294.69 597.919 296.468V303.338C597.929 304.842 598.139 305.979 598.549 306.751V307H594.271ZM590.771 304.056C591.396 304.056 591.972 303.919 592.499 303.646C593.026 303.362 593.417 302.986 593.671 302.518V299.793H592.089C589.97 299.793 588.842 300.525 588.705 301.99L588.69 302.239C588.69 302.767 588.876 303.201 589.247 303.543C589.618 303.885 590.126 304.056 590.771 304.056ZM605.639 307H601.391V291.15H605.639V307ZM601.142 287.049C601.142 286.414 601.352 285.892 601.771 285.481C602.201 285.071 602.782 284.866 603.515 284.866C604.237 284.866 604.813 285.071 605.243 285.481C605.673 285.892 605.888 286.414 605.888 287.049C605.888 287.693 605.668 288.221 605.229 288.631C604.799 289.041 604.228 289.246 603.515 289.246C602.802 289.246 602.226 289.041 601.786 288.631C601.356 288.221 601.142 287.693 601.142 287.049ZM613.036 291.15L613.168 292.981C614.301 291.565 615.819 290.857 617.724 290.857C619.403 290.857 620.653 291.351 621.474 292.337C622.294 293.323 622.714 294.798 622.733 296.761V307H618.5V296.863C618.5 295.965 618.305 295.315 617.914 294.915C617.523 294.505 616.874 294.3 615.966 294.3C614.774 294.3 613.881 294.808 613.285 295.823V307H609.052V291.15H613.036ZM645.775 298.973H648.192V302.386H645.775V307H641.542V302.386H632.797L632.606 299.72L641.498 285.672H645.775V298.973ZM636.825 298.973H641.542V291.443L641.264 291.927L636.825 298.973Z" fill="#FAFAFA"/>
<path d="M73.5771 347H69.1826V325.672H73.5771V347ZM81.2822 331.15L81.4141 332.981C82.5469 331.565 84.0654 330.857 85.9697 330.857C87.6494 330.857 88.8994 331.351 89.7197 332.337C90.54 333.323 90.96 334.798 90.9795 336.761V347H86.7461V336.863C86.7461 335.965 86.5508 335.315 86.1602 334.915C85.7695 334.505 85.1201 334.3 84.2119 334.3C83.0205 334.3 82.127 334.808 81.5312 335.823V347H77.2979V331.15H81.2822ZM108.47 339.222C108.47 341.663 107.913 343.621 106.8 345.096C105.696 346.561 104.202 347.293 102.317 347.293C100.716 347.293 99.4219 346.736 98.4355 345.623V353.094H94.2021V331.15H98.1279L98.2744 332.703C99.2998 331.473 100.638 330.857 102.288 330.857C104.241 330.857 105.76 331.58 106.844 333.025C107.928 334.471 108.47 336.463 108.47 339.002V339.222ZM104.236 338.914C104.236 337.439 103.973 336.302 103.445 335.501C102.928 334.7 102.171 334.3 101.175 334.3C99.8467 334.3 98.9336 334.808 98.4355 335.823V342.312C98.9531 343.357 99.876 343.88 101.204 343.88C103.226 343.88 104.236 342.225 104.236 338.914ZM120.599 345.389C119.554 346.658 118.108 347.293 116.263 347.293C114.563 347.293 113.265 346.805 112.366 345.828C111.478 344.852 111.023 343.421 111.004 341.536V331.15H115.237V341.39C115.237 343.04 115.989 343.865 117.493 343.865C118.929 343.865 119.915 343.367 120.452 342.371V331.15H124.7V347H120.716L120.599 345.389ZM132.962 327.254V331.15H135.672V334.256H132.962V342.166C132.962 342.752 133.074 343.172 133.299 343.426C133.523 343.68 133.953 343.807 134.588 343.807C135.057 343.807 135.472 343.772 135.833 343.704V346.912C135.003 347.166 134.148 347.293 133.27 347.293C130.301 347.293 128.787 345.794 128.729 342.796V334.256H126.414V331.15H128.729V327.254H132.962Z" fill="#F8DF84"/>
<path d="M319.424 337.819C319.424 339.919 319.053 341.76 318.311 343.342C317.568 344.924 316.504 346.145 315.117 347.004C313.74 347.863 312.158 348.293 310.371 348.293C308.604 348.293 307.026 347.868 305.64 347.019C304.253 346.169 303.179 344.958 302.417 343.386C301.655 341.804 301.27 339.987 301.26 337.937V336.882C301.26 334.782 301.636 332.937 302.388 331.345C303.149 329.743 304.219 328.518 305.596 327.668C306.982 326.809 308.564 326.379 310.342 326.379C312.119 326.379 313.696 326.809 315.073 327.668C316.46 328.518 317.529 329.743 318.281 331.345C319.043 332.937 319.424 334.777 319.424 336.867V337.819ZM314.971 336.853C314.971 334.616 314.57 332.917 313.77 331.755C312.969 330.593 311.826 330.012 310.342 330.012C308.867 330.012 307.729 330.588 306.929 331.74C306.128 332.883 305.723 334.562 305.713 336.779V337.819C305.713 339.997 306.113 341.687 306.914 342.888C307.715 344.089 308.867 344.689 310.371 344.689C311.846 344.689 312.979 344.113 313.77 342.961C314.561 341.799 314.961 340.109 314.971 337.893V336.853ZM331.831 346.389C330.786 347.658 329.341 348.293 327.495 348.293C325.796 348.293 324.497 347.805 323.599 346.828C322.71 345.852 322.256 344.421 322.236 342.536V332.15H326.47V342.39C326.47 344.04 327.222 344.865 328.726 344.865C330.161 344.865 331.147 344.367 331.685 343.371V332.15H335.933V348H331.948L331.831 346.389ZM344.194 328.254V332.15H346.904V335.256H344.194V343.166C344.194 343.752 344.307 344.172 344.531 344.426C344.756 344.68 345.186 344.807 345.82 344.807C346.289 344.807 346.704 344.772 347.065 344.704V347.912C346.235 348.166 345.381 348.293 344.502 348.293C341.533 348.293 340.02 346.794 339.961 343.796V335.256H337.646V332.15H339.961V328.254H344.194ZM363.53 340.222C363.53 342.663 362.974 344.621 361.86 346.096C360.757 347.561 359.263 348.293 357.378 348.293C355.776 348.293 354.482 347.736 353.496 346.623V354.094H349.263V332.15H353.188L353.335 333.703C354.36 332.473 355.698 331.857 357.349 331.857C359.302 331.857 360.82 332.58 361.904 334.025C362.988 335.471 363.53 337.463 363.53 340.002V340.222ZM359.297 339.914C359.297 338.439 359.033 337.302 358.506 336.501C357.988 335.7 357.231 335.3 356.235 335.3C354.907 335.3 353.994 335.808 353.496 336.823V343.312C354.014 344.357 354.937 344.88 356.265 344.88C358.286 344.88 359.297 343.225 359.297 339.914ZM375.659 346.389C374.614 347.658 373.169 348.293 371.323 348.293C369.624 348.293 368.325 347.805 367.427 346.828C366.538 345.852 366.084 344.421 366.064 342.536V332.15H370.298V342.39C370.298 344.04 371.05 344.865 372.554 344.865C373.989 344.865 374.976 344.367 375.513 343.371V332.15H379.761V348H375.776L375.659 346.389ZM388.022 328.254V332.15H390.732V335.256H388.022V343.166C388.022 343.752 388.135 344.172 388.359 344.426C388.584 344.68 389.014 344.807 389.648 344.807C390.117 344.807 390.532 344.772 390.894 344.704V347.912C390.063 348.166 389.209 348.293 388.33 348.293C385.361 348.293 383.848 346.794 383.789 343.796V335.256H381.475V332.15H383.789V328.254H388.022Z" fill="#7A7EBB"/>
<path d="M229.424 189.819C229.424 191.919 229.053 193.76 228.311 195.342C227.568 196.924 226.504 198.145 225.117 199.004C223.74 199.863 222.158 200.293 220.371 200.293C218.604 200.293 217.026 199.868 215.64 199.019C214.253 198.169 213.179 196.958 212.417 195.386C211.655 193.804 211.27 191.987 211.26 189.937V188.882C211.26 186.782 211.636 184.937 212.388 183.345C213.149 181.743 214.219 180.518 215.596 179.668C216.982 178.809 218.564 178.379 220.342 178.379C222.119 178.379 223.696 178.809 225.073 179.668C226.46 180.518 227.529 181.743 228.281 183.345C229.043 184.937 229.424 186.777 229.424 188.867V189.819ZM224.971 188.853C224.971 186.616 224.57 184.917 223.77 183.755C222.969 182.593 221.826 182.012 220.342 182.012C218.867 182.012 217.729 182.588 216.929 183.74C216.128 184.883 215.723 186.562 215.713 188.779V189.819C215.713 191.997 216.113 193.687 216.914 194.888C217.715 196.089 218.867 196.689 220.371 196.689C221.846 196.689 222.979 196.113 223.77 194.961C224.561 193.799 224.961 192.109 224.971 189.893V188.853ZM241.831 198.389C240.786 199.658 239.341 200.293 237.495 200.293C235.796 200.293 234.497 199.805 233.599 198.828C232.71 197.852 232.256 196.421 232.236 194.536V184.15H236.47V194.39C236.47 196.04 237.222 196.865 238.726 196.865C240.161 196.865 241.147 196.367 241.685 195.371V184.15H245.933V200H241.948L241.831 198.389ZM254.194 180.254V184.15H256.904V187.256H254.194V195.166C254.194 195.752 254.307 196.172 254.531 196.426C254.756 196.68 255.186 196.807 255.82 196.807C256.289 196.807 256.704 196.772 257.065 196.704V199.912C256.235 200.166 255.381 200.293 254.502 200.293C251.533 200.293 250.02 198.794 249.961 195.796V187.256H247.646V184.15H249.961V180.254H254.194ZM273.53 192.222C273.53 194.663 272.974 196.621 271.86 198.096C270.757 199.561 269.263 200.293 267.378 200.293C265.776 200.293 264.482 199.736 263.496 198.623V206.094H259.263V184.15H263.188L263.335 185.703C264.36 184.473 265.698 183.857 267.349 183.857C269.302 183.857 270.82 184.58 271.904 186.025C272.988 187.471 273.53 189.463 273.53 192.002V192.222ZM269.297 191.914C269.297 190.439 269.033 189.302 268.506 188.501C267.988 187.7 267.231 187.3 266.235 187.3C264.907 187.3 263.994 187.808 263.496 188.823V195.312C264.014 196.357 264.937 196.88 266.265 196.88C268.286 196.88 269.297 195.225 269.297 191.914ZM285.659 198.389C284.614 199.658 283.169 200.293 281.323 200.293C279.624 200.293 278.325 199.805 277.427 198.828C276.538 197.852 276.084 196.421 276.064 194.536V184.15H280.298V194.39C280.298 196.04 281.05 196.865 282.554 196.865C283.989 196.865 284.976 196.367 285.513 195.371V184.15H289.761V200H285.776L285.659 198.389ZM298.022 180.254V184.15H300.732V187.256H298.022V195.166C298.022 195.752 298.135 196.172 298.359 196.426C298.584 196.68 299.014 196.807 299.648 196.807C300.117 196.807 300.532 196.772 300.894 196.704V199.912C300.063 200.166 299.209 200.293 298.33 200.293C295.361 200.293 293.848 198.794 293.789 195.796V187.256H291.475V184.15H293.789V180.254H298.022Z" fill="#7A7EBB"/>
<path d="M522.904 358V336.672H529.467C531.342 336.672 533.017 337.097 534.491 337.946C535.976 338.786 537.133 339.987 537.963 341.55C538.793 343.103 539.208 344.87 539.208 346.853V347.834C539.208 349.816 538.798 351.579 537.978 353.122C537.167 354.665 536.02 355.861 534.535 356.711C533.051 357.561 531.376 357.99 529.511 358H522.904ZM527.299 340.231V354.47H529.423C531.142 354.47 532.455 353.908 533.363 352.785C534.271 351.662 534.735 350.056 534.755 347.966V346.838C534.755 344.67 534.306 343.029 533.407 341.916C532.509 340.793 531.195 340.231 529.467 340.231H527.299ZM541.479 349.929C541.479 348.356 541.781 346.955 542.387 345.725C542.992 344.494 543.861 343.542 544.994 342.868C546.137 342.194 547.46 341.857 548.964 341.857C551.103 341.857 552.846 342.512 554.193 343.82C555.551 345.129 556.308 346.906 556.464 349.152L556.493 350.236C556.493 352.668 555.814 354.621 554.457 356.096C553.1 357.561 551.278 358.293 548.993 358.293C546.708 358.293 544.882 357.561 543.515 356.096C542.157 354.631 541.479 352.639 541.479 350.119V349.929ZM545.712 350.236C545.712 351.74 545.995 352.893 546.562 353.693C547.128 354.484 547.938 354.88 548.993 354.88C550.019 354.88 550.819 354.489 551.396 353.708C551.972 352.917 552.26 351.657 552.26 349.929C552.26 348.454 551.972 347.312 551.396 346.501C550.819 345.69 550.009 345.285 548.964 345.285C547.929 345.285 547.128 345.69 546.562 346.501C545.995 347.302 545.712 348.547 545.712 350.236ZM563.07 342.15L563.202 343.923C564.325 342.546 565.844 341.857 567.758 341.857C569.799 341.857 571.2 342.663 571.962 344.274C573.075 342.663 574.662 341.857 576.723 341.857C578.441 341.857 579.721 342.36 580.561 343.366C581.4 344.362 581.82 345.866 581.82 347.878V358H577.572V347.893C577.572 346.994 577.396 346.34 577.045 345.93C576.693 345.51 576.073 345.3 575.185 345.3C573.915 345.3 573.036 345.905 572.548 347.116L572.562 358H568.329V347.907C568.329 346.989 568.148 346.325 567.787 345.915C567.426 345.505 566.811 345.3 565.941 345.3C564.74 345.3 563.871 345.798 563.334 346.794V358H559.101V342.15H563.07ZM594.271 358C594.076 357.619 593.935 357.146 593.847 356.579C592.821 357.722 591.488 358.293 589.848 358.293C588.295 358.293 587.006 357.844 585.98 356.945C584.965 356.047 584.457 354.914 584.457 353.547C584.457 351.867 585.077 350.578 586.317 349.68C587.567 348.781 589.369 348.327 591.723 348.317H593.671V347.409C593.671 346.677 593.48 346.091 593.1 345.651C592.729 345.212 592.138 344.992 591.327 344.992C590.614 344.992 590.053 345.163 589.643 345.505C589.242 345.847 589.042 346.315 589.042 346.911H584.809C584.809 345.993 585.092 345.144 585.658 344.362C586.225 343.581 587.025 342.971 588.061 342.531C589.096 342.082 590.258 341.857 591.547 341.857C593.5 341.857 595.048 342.351 596.19 343.337C597.343 344.313 597.919 345.69 597.919 347.468V354.338C597.929 355.842 598.139 356.979 598.549 357.751V358H594.271ZM590.771 355.056C591.396 355.056 591.972 354.919 592.499 354.646C593.026 354.362 593.417 353.986 593.671 353.518V350.793H592.089C589.97 350.793 588.842 351.525 588.705 352.99L588.69 353.239C588.69 353.767 588.876 354.201 589.247 354.543C589.618 354.885 590.126 355.056 590.771 355.056ZM605.639 358H601.391V342.15H605.639V358ZM601.142 338.049C601.142 337.414 601.352 336.892 601.771 336.481C602.201 336.071 602.782 335.866 603.515 335.866C604.237 335.866 604.813 336.071 605.243 336.481C605.673 336.892 605.888 337.414 605.888 338.049C605.888 338.693 605.668 339.221 605.229 339.631C604.799 340.041 604.228 340.246 603.515 340.246C602.802 340.246 602.226 340.041 601.786 339.631C601.356 339.221 601.142 338.693 601.142 338.049ZM613.036 342.15L613.168 343.981C614.301 342.565 615.819 341.857 617.724 341.857C619.403 341.857 620.653 342.351 621.474 343.337C622.294 344.323 622.714 345.798 622.733 347.761V358H618.5V347.863C618.5 346.965 618.305 346.315 617.914 345.915C617.523 345.505 616.874 345.3 615.966 345.3C614.774 345.3 613.881 345.808 613.285 346.823V358H609.052V342.15H613.036ZM633.881 347.512L635.111 336.672H647.064V340.202H638.583L638.056 344.787C639.062 344.25 640.131 343.981 641.264 343.981C643.295 343.981 644.887 344.611 646.039 345.871C647.191 347.131 647.768 348.894 647.768 351.159C647.768 352.536 647.475 353.771 646.889 354.865C646.312 355.949 645.482 356.794 644.398 357.399C643.314 357.995 642.035 358.293 640.561 358.293C639.271 358.293 638.075 358.034 636.972 357.517C635.868 356.989 634.994 356.252 634.35 355.305C633.715 354.357 633.378 353.278 633.339 352.067H637.528C637.616 352.956 637.924 353.649 638.451 354.147C638.988 354.636 639.687 354.88 640.546 354.88C641.503 354.88 642.24 354.538 642.758 353.854C643.275 353.161 643.534 352.185 643.534 350.925C643.534 349.714 643.236 348.786 642.641 348.142C642.045 347.497 641.2 347.175 640.106 347.175C639.101 347.175 638.285 347.438 637.66 347.966L637.25 348.347L633.881 347.512Z" fill="white"/>
<rect x="501.5" y="313.5" width="169" height="68" stroke="#FFFBFB" stroke-width="3"/>
<defs>
<filter id="filter0_d" x="10" y="10" width="702" height="490" filterUnits="userSpaceOnUse" color-interpolation-filters="sRGB">
<feFlood flood-opacity="0" result="BackgroundImageFix"/>
<feColorMatrix in="SourceAlpha" type="matrix" values="0 0 0 0 0 0 0 0 0 0 0 0 0 0 0 0 0 0 127 0"/>
<feOffset dy="4"/>
<feGaussianBlur stdDeviation="2"/>
<feColorMatrix type="matrix" values="0 0 0 0 0 0 0 0 0 0 0 0 0 0 0 0 0 0 0.25 0"/>
<feBlend mode="normal" in2="BackgroundImageFix" result="effect1_dropShadow"/>
<feBlend mode="normal" in="SourceGraphic" in2="effect1_dropShadow" result="shape"/>
</filter>
</defs>
</svg>
